<svg width="16" height="16" viewBox="0 0 16 16" fill="none" xmlns="http://www.w3.org/2000/svg">
<path fill-rule="evenodd" clip-rule="evenodd" d="M7.85128 8.9765C7.40528 8.9765 6.96061 8.82916 6.58861 8.5345L3.59861 6.12383C3.38328 5.9505 3.34994 5.63516 3.52261 5.4205C3.69661 5.2065 4.01128 5.1725 4.22594 5.34516L7.21328 7.75316C7.58861 8.0505 8.11728 8.0505 8.49528 7.7505L11.4526 5.3465C11.6673 5.17116 11.9819 5.2045 12.1566 5.41916C12.3306 5.63316 12.2979 5.94783 12.0839 6.1225L9.12128 8.5305C8.74661 8.82783 8.29861 8.9765 7.85128 8.9765Z" fill="#424242"/>
<mask id="mask0_1124_4053" style="mask-type:alpha" maskUnits="userSpaceOnUse" x="0" y="1" width="15" height="14">
<path fill-rule="evenodd" clip-rule="evenodd" d="M0.666687 1.33331H15V14.3333H0.666687V1.33331Z" fill="white"/>
</mask>
<g mask="url(#mask0_1124_4053)">
<path fill-rule="evenodd" clip-rule="evenodd" d="M4.55929 13.3333H11.106C11.1073 13.332 11.1126 13.3333 11.1166 13.3333C11.8773 13.3333 12.552 13.0613 13.0693 12.5446C13.67 11.9466 14 11.0873 14 10.1253V5.54665C14 3.68465 12.7826 2.33331 11.106 2.33331H4.56063C2.88396 2.33331 1.66663 3.68465 1.66663 5.54665V10.1253C1.66663 11.0873 1.99729 11.9466 2.59729 12.5446C3.11463 13.0613 3.78996 13.3333 4.54996 13.3333H4.55929ZM4.54796 14.3333C3.51929 14.3333 2.60063 13.96 1.89129 13.2533C1.10129 12.4653 0.666626 11.3546 0.666626 10.1253V5.54665C0.666626 3.14465 2.34063 1.33331 4.56063 1.33331H11.106C13.326 1.33331 15 3.14465 15 5.54665V10.1253C15 11.3546 14.5653 12.4653 13.7753 13.2533C13.0666 13.9593 12.1473 14.3333 11.1166 14.3333H11.106H4.56063H4.54796Z" fill="#424242"/>
</g>
</svg>
